<svg width="636" height="506" viewBox="0 0 636 506" fill="none" xmlns="http://www.w3.org/2000/svg">
<path d="M262.501 414.019L338.185 300.249C339.405 298.378 340.626 297.035 341.847 296.221C343.149 295.407 344.41 295 345.631 295C347.177 295 348.438 295.651 349.415 296.953C350.473 298.174 351.002 299.72 351.002 301.592V422.442C351.002 424.802 350.717 426.836 350.147 428.545C349.578 430.173 348.113 430.987 345.753 430.987C343.718 430.987 342.335 430.173 341.603 428.545C340.951 426.836 340.626 424.802 340.626 422.442V314.043L268.482 420.489C266.529 423.255 264.535 424.639 262.501 424.639C260.304 424.639 258.31 423.255 256.52 420.489L184.376 314.043V422.442C184.376 424.802 184.01 426.836 183.277 428.545C182.626 430.173 181.284 430.987 179.249 430.987C176.889 430.987 175.424 430.173 174.854 428.545C174.285 426.836 174 424.802 174 422.442V301.592C174 299.72 174.488 298.174 175.465 296.953C176.523 295.651 177.825 295 179.371 295C180.51 295 181.69 295.407 182.911 296.221C184.213 297.035 185.515 298.378 186.817 300.249L262.501 414.019Z" fill="#3C06F4"/>
<path d="M394.947 430.987C393.727 430.987 392.75 430.946 392.018 430.865C391.367 430.783 390.878 430.62 390.553 430.376C390.227 430.051 390.024 429.603 389.942 429.033C389.942 428.382 389.942 427.528 389.942 426.47V302.935C389.942 300.819 390.309 298.988 391.041 297.442C391.773 295.814 393.32 295 395.68 295C397.633 295 398.894 295.855 399.464 297.564C400.034 299.191 400.318 300.982 400.318 302.935V422.93H505.177C506.804 422.93 508.025 423.378 508.839 424.273C509.734 425.087 510.182 425.982 510.182 426.958C510.182 428.016 509.734 428.952 508.839 429.766C508.025 430.58 506.804 430.987 505.177 430.987H394.947Z" fill="#3C06F4"/>
<path d="M16.8769 493H457V505H10L16.8769 493Z" fill="#3C06F4"/>
<path d="M79.5 371L315.505 0.17256L315 23.0003L90.0018 377.497L79.5 371Z" fill="#3C06F4"/>
<path d="M45.8564 430.998L56.0054 437.401L13.319 505.061L0 505.063L45.8564 430.998Z" fill="#3C06F4"/>
<path d="M537 505L537.053 493L617.052 493.351L624.111 504.646L537 505Z" fill="#3C06F4"/>
<path d="M372.661 80.8866L362.497 87.2648L322.5 22.5003L321.954 0.141602L372.661 80.8866Z" fill="#3C06F4"/>
<path d="M623.678 504.649L383.001 124.419L393.14 118.001L636 504.648L623.678 504.649Z" fill="#3C06F4"/>
</svg>
